<svg width="396" height="53" viewBox="0 0 396 53">
  <g id="fleximple">
    <path id="fleximple-letter-f"
      d="M20.059 3.483V1.308c0-.589-.393-.981-.982-.981H.979c-.589 0-.981.392-.981.981v50.383c0 .589.392.982.981.982h2.502c.588 0 .981-.393.981-.982V28.568h11.67c.589 0 .982-.392.982-.98v-2.176c0-.588-.393-.98-.982-.98H4.462V4.464h14.615c.589 0 .982-.393.982-.981z"
      fill="#2a2b35" fill-rule="nonzero" />
    <path id="fleximple-letter-l-1"
      d="M28.457 48.536V1.309c0-.589-.392-.982-.981-.982h-2.502c-.588 0-.981.393-.981.982v50.383c0 .589.393.981.981.981h16.79c.589 0 .981-.392.981-.981v-2.175c0-.588-.392-.981-.981-.981H28.457z"
      fill="#2a2b35" fill-rule="nonzero" />
    <path id="fleximple-letter-e-1"
      d="M66.741 3.483V1.308c0-.589-.393-.981-.982-.981H47.661c-.589 0-.981.392-.981.981v50.384c0 .589.392.981.981.981h18.098c.589 0 .982-.392.982-.981v-2.175c0-.588-.393-.981-.982-.981H51.144V28.568h11.67c.589 0 .982-.392.982-.98v-2.176c0-.588-.393-.98-.982-.98h-11.67V4.464h14.615c.589 0 .982-.393.982-.981z"
      fill="#2a2b35" fill-rule="nonzero" />
    <path id="fleximple-letter-x"
      d="M79.201 26.5l-8.573 25.06c-.196.655.066 1.113.786 1.113h2.443c.523 0 .916-.197 1.112-.785l6.725-21.424 6.647 21.424c.197.588.589.785 1.113.785h2.508c.72 0 .982-.458.786-1.113L84.24 26.5l8.508-25.061c.196-.654-.066-1.112-.786-1.112h-2.508c-.524 0-.916.196-1.113.785l-6.647 21.424-6.725-21.424c-.196-.589-.589-.785-1.112-.785h-2.443c-.72 0-.982.458-.786 1.112L79.201 26.5z"
      fill="#2a2b35" fill-rule="nonzero" />
    <path id="fleximple-letter-i"
      d="M100.99.327h-2.503c-.588 0-.98.393-.98.982v50.382c0 .589.392.982.98.982h2.503c.588 0 .98-.393.98-.982V1.309c0-.589-.392-.982-.98-.982z"
      fill="#2a2b35" fill-rule="nonzero" />
    <path id="fleximple-letter-m"
      d="M123.229 42.214l-10.59-41.036c-.131-.589-.524-.851-1.113-.851h-3.768c-.588 0-.98.393-.98.982v50.382c0 .589.392.982.98.982h2.175c.589 0 .981-.393.981-.982V12.265l10.277 39.557c.131.524.459.851 1.048.851h2.008c.59 0 .917-.327 1.048-.851l10.277-39.557v39.426c0 .589.393.982.981.982h2.175c.588 0 .981-.393.981-.982V1.309c0-.589-.393-.982-.981-.982h-3.767c-.59 0-.982.262-1.113.851l-10.619 41.036z"
      fill="#2a2b35" fill-rule="nonzero" />
    <path id="fleximple-letter-p"
      d="M160.004.327h-14.507c-.589 0-.981.392-.981.981v50.383c0 .589.392.982.981.982h2.502c.588 0 .981-.393.981-.982V32.822h11.024c5.492 0 8.499-3.007 8.499-8.499V8.827c0-5.492-3.007-8.5-8.499-8.5zm.536 4.137a3.5 3.5 0 013.5 3.5v17.222a3.5 3.5 0 01-3.5 3.499h-11.56V4.464h11.56z"
      fill="#2a2b35" fill-rule="nonzero" />
    <path id="fleximple-letter-l-2"
      d="M177.556 48.536V1.309c0-.589-.392-.982-.981-.982h-2.502c-.588 0-.981.393-.981.982v50.383c0 .589.393.981.981.981h16.79c.589 0 .981-.392.981-.981v-2.175c0-.588-.392-.981-.981-.981h-13.307z"
      fill="#2a2b35" fill-rule="nonzero" />
    <path id="fleximple-letter-e-2"
      d="M215.84 3.483V1.308c0-.589-.393-.981-.982-.981H196.76c-.589 0-.981.392-.981.981v50.384c0 .589.392.981.981.981h18.098c.589 0 .982-.392.982-.981v-2.175c0-.588-.393-.981-.982-.981h-14.615V28.568h11.67c.589 0 .982-.392.982-.98v-2.176c0-.588-.393-.98-.982-.98h-11.67V4.464h14.615c.589 0 .982-.393.982-.981z"
      fill="#2a2b35" fill-rule="nonzero" />
  </g>
  <g id="blocks">
    <path id="blocks-letter-b"
      d="M241.955 26.173c2.811-1.177 3.857-3.923 3.857-7.524V8.827c0-5.492-3.007-8.5-8.499-8.5h-16.558c-.588 0-.98.392-.98.981v50.384c0 .589.392.981.98.981h16.689c5.492 0 8.499-3.008 8.499-8.5V33.697c0-3.667-1.177-6.347-3.988-7.524zm-4.838 16.036c0 1.244-.721 1.964-1.965 1.964h-6.551V30.422h6.551c1.244 0 1.965.721 1.965 1.965v9.822zm-8.516-33.382h6.42c1.244 0 1.965.72 1.965 1.964v9.168c0 1.244-.721 1.964-1.965 1.964h-6.42V8.827z"
      fill="#2a2b35" fill-rule="nonzero" />
    <path id="blocks-letter-l"
      d="M260.668 44.173V1.309c0-.589-.393-.982-.981-.982h-6.865c-.589 0-.981.393-.981.982v50.383c0 .589.392.981.981.981h18.971c.589 0 .982-.392.982-.981v-6.538c0-.588-.393-.981-.982-.981h-11.125z"
      fill="#2a2b35" fill-rule="nonzero" />
    <path id="blocks-letter-o"
      d="M284.554 53h9.17c5.492 0 8.5-3.007 8.5-8.499V8.499c0-5.492-3.008-8.499-8.5-8.499h-9.17c-5.492 0-8.499 3.007-8.499 8.499v36.002c0 5.492 3.007 8.499 8.499 8.499zm.327-10.463V10.463c0-1.244.721-1.964 1.965-1.964h4.586c1.244 0 1.965.72 1.965 1.964v32.074c0 1.244-.721 1.964-1.965 1.964h-4.586c-1.244 0-1.965-.72-1.965-1.964z"
      fill="#2a2b35" fill-rule="nonzero" />
    <path id="blocks-letter-c"
      d="M315.967 53h9.169c5.492 0 8.5-3.007 8.5-8.499v-8.51c0-.589-.393-.982-.981-.982h-6.865c-.588 0-.981.393-.981.982v6.546c0 1.244-.72 1.964-1.965 1.964h-4.585c-1.245 0-1.965-.72-1.965-1.964V10.463c0-1.244.72-1.964 1.965-1.964h4.585c1.245 0 1.965.72 1.965 1.964v6.546c0 .589.393.982.981.982h6.865c.588 0 .981-.393.981-.982v-8.51c0-5.492-3.008-8.499-8.5-8.499h-9.169c-5.492 0-8.5 3.007-8.5 8.499v36.002c0 5.492 3.008 8.499 8.5 8.499z"
      fill="#2a2b35" fill-rule="nonzero" />
    <path id="blocks-letter-k"
      d="M367.993 51.495l-11.976-26.762 11.322-23.228c.327-.72 0-1.178-.72-1.178h-7.526c-.524 0-.851.262-1.113.72l-10.274 20.807V1.309c0-.589-.392-.982-.981-.982h-6.865c-.588 0-.981.393-.981.982v50.382c0 .589.393.982.981.982h6.865c.589 0 .981-.393.981-.982V38.212c0-.916.196-1.636.654-2.421l1.833-3.402 8.311 19.564c.196.523.589.72 1.112.72h7.657c.72 0 1.047-.458.72-1.178z"
      fill="#2a2b35" fill-rule="nonzero" />
    <path id="blocks-letter-s"
      d="M378.333 53h9.17c5.492 0 8.499-3.007 8.499-8.499V33.635c0-4.975-2.55-6.808-6.996-8.968l-8.708-4.189c-1.114-.524-1.638-1.113-1.638-2.226v-7.789c0-1.244.721-1.964 1.965-1.964h4.586c1.244 0 1.965.72 1.965 1.964v7.2c0 .589.392.982.98.982h6.865c.589 0 .981-.393.981-.982V8.499c0-5.492-3.007-8.499-8.499-8.499h-9.17c-5.492 0-8.5 3.007-8.5 8.499v11.193c0 4.975 2.55 6.808 6.996 8.968l8.709 4.189c1.114.524 1.638 1.113 1.638 2.226v7.462c0 1.244-.721 1.964-1.965 1.964h-4.586c-1.244 0-1.965-.72-1.965-1.964v-7.2c0-.589-.392-.982-.981-.982h-6.865c-.588 0-.981.393-.981.982v9.164c0 5.492 3.008 8.499 8.5 8.499z"
      fill="#2a2b35" fill-rule="nonzero" />
  </g>
</svg>