<svg xmlns="http://www.w3.org/2000/svg" width="768" height="480">
  <path d="M0 0h768v480H0z" fill="#f3f3f5" />
  <path
    d="M474 120H294c-16.546 0-30 13.454-30 30v180c0 16.546 13.454 30 30 30h180c16.546 0 30-13.454 30-30V150c0-16.546-13.454-30-30-30zm-180 20h180c5.515 0 10 4.485 10 10v70.86l-32.93-32.93c-3.906-3.904-10.234-3.904-14.14 0l-70.43 70.43-25.43-25.43c-3.906-3.904-10.234-3.904-14.14 0L284 275.86V150c0-5.515 4.485-10 10-10zm180 200H294c-5.515 0-10-4.485-10-10v-25.86l50-50 57.93 57.926A9.942 9.942 0 00399 315a9.957 9.957 0 007.07-2.93 10 10 0 000-14.14l-25.43-25.43L444 209.146l40 40V330c0 5.515-4.485 10-10 10z" />
  <path d="M344 180c0 11.045-8.955 20-20 20s-20-8.955-20-20 8.955-20 20-20 20 8.955 20 20z" />
</svg>